<svg xmlns="http://www.w3.org/2000/svg" viewBox="0 0 240 240">
  <rect width="240" height="240" rx="20" fill="#F7DF1E"/>
  <path d="M63.5 155.5l17.5-10.5c3.4 6 6.4 11 13.8 11 7 0 11.5-2.8 11.5-13.5V82h21.5v61c0 22.2-13 32.3-32 32.3-17.2 0-27.2-8.8-32.3-19.8M139 153l17.4-10c4.6 7.5 10.5 13 21 13 8.8 0 14.5-4.4 14.5-10.5 0-7.3-5.8-10-15.6-14.2l-5.3-2.3c-15.4-6.6-25.7-14.8-25.7-32.3 0-16 12.3-28.3 31.4-28.3 13.7 0 23.4 4.7 30.5 17l-16.7 10.7c-3.7-6.6-7.6-9.2-13.8-9.2-6.3 0-10.3 4-10.3 9.2 0 6.4 4 9 13.2 13l5.3 2.3c18.2 7.8 28.5 15.7 28.5 33.6 0 19.3-15.2 29.8-35.5 29.8-20 0-32.8-9.4-39-21.8"/>
</svg> 