<svg xmlns="http://www.w3.org/2000/svg" viewBox="0 0 240 240">
  <rect width="240" height="240" rx="20" fill="#001E36"/>
  <path fill="#31A8FF" d="M54.8 125.9V182h24.5v-18.5H97c24.5 0 42.9-13.3 42.9-37.9 0-24-16.9-37.7-41.5-37.7H54.8v38zm24.5-17.9h15.6c12.3 0 18.5 5.6 18.5 18 0 12.5-6.2 18.2-18.5 18.2H79.3v-36.2zm82.9 5.3c-9.4 0-17.7 3.9-22.7 10.5l11.2 11.2c3.5-4.3 7-6.2 10.3-6.2 4.5 0 6.8 2.5 6.8 7v1.8c-21 5.9-33.9 12.2-33.9 28.3 0 13.7 8.5 21.8 21.5 21.8 8.5 0 15.1-3.1 20.3-9.6V182h22.7v-51.1c0-20.6-12.1-27.6-36.2-27.6zm11.6 55c-3.7 4.5-7.9 6.8-13.1 6.8-5.3 0-8.7-2.9-8.7-8.3 0-5.9 4.5-9.2 17.7-13.3v14.8z"/>
</svg> 