<svg xmlns="http://www.w3.org/2000/svg" viewBox="0 0 240 240">
  <rect width="240" height="240" rx="20" fill="#FFFFFF"/>
  <path fill="#61DAFB" d="M120 93.9c-8.4 0-15.2 6.8-15.2 15.2s6.8 15.2 15.2 15.2 15.2-6.8 15.2-15.2-6.8-15.2-15.2-15.2zm37.2-30.4c2 7.2 1.9 14.8-.4 23.8-.2.8-.4 1.5-.6 2.3 2.2.6 4.4 1.3 6.4 2 13.1 4.8 21.1 11.8 21.1 19.1 0 7.4-8.6 14.9-22.5 19.8-1.7.6-3.6 1.2-5.5 1.7.6 2.4 1.1 4.8 1.5 7.1 3.2 17.3.7 30.9-7.2 35.3-7.6 4.2-19.9-.1-32.4-10.3-1.5-1.2-3-2.5-4.6-3.9-1.2 1.2-2.5 2.3-3.7 3.4-13 11.5-26 16.1-33.9 11.7-7.6-4.2-9.9-16.7-6.7-33.2.4-2.1.9-4.3 1.5-6.6-2.1-.6-4.2-1.3-6.1-2-13.5-4.7-22.1-12.3-22.1-19.8 0-7.3 7.9-14.3 21-19.1 2-0.7 4.1-1.4 6.3-2-.3-1-0.5-1.9-0.7-2.9-3.4-16.6-1.2-29.2 6.5-33.5 8-4.6 21.2.5 34.4 12.7 1.1 1 2.2 2.1 3.3 3.2 1.8-1.7 3.6-3.3 5.4-4.8 12.8-11 25.2-15.4 32.9-11 8 4.6 10.5 18.5 5.8 35.5zm-10.9 84.4c6.2-3.5 7.9-14.3 5.3-28.4-.3-2.1-.8-4.2-1.3-6.3-9.6 2.2-20 3.8-31.3 4.7-6.4 9.3-13.2 17.7-20.1 25.1 1.5 1.4 2.9 2.7 4.4 3.9 10.6 8.6 20.4 12 26.3 8.8l16.7-7.8zm-83-11.9c-2.7 14.3-.7 25.4 5.4 28.8 6.3 3.6 17.1-.1 28.9-9.5 1.3-1 2.6-2.1 3.9-3.3-7-7.4-13.7-15.9-20-25.4-11.1-.9-21.4-2.6-30.9-4.9-.4 1.8-.9 3.6-1.2 5.4l13.9 8.9zm-16.8-54.4c-10.7 3.7-17.5 8.6-17.5 13.2 0 4.9 7.8 10.3 19.6 14.3 1.7.6 3.4 1.1 5.2 1.7 2-6.5 4.5-13.2 7.5-20.1 3-6.8 6.4-13.4 10-19.6-1.8-.5-3.5-1-5.2-1.5l-19.6 12zm23.7-36.3c-5.6-3.2-7.7-13.4-5.1-27 .4-2 .9-4 1.5-6 9.2 2.2 19.3 3.8 30.1 4.7 6.4 8.9 13 17.1 19.5 24.5-1.7 1.7-3.4 3.4-5.1 5.1-10.1 8.9-19.5 12.8-25.6 9.5l-15.3-10.8zm87.2 3.2c1.5 1.5 3 3.1 4.4 4.7 7-7.6 12.3-14.9 16-21.3-5.7-.7-11.7-1.1-17.8-1.1-6 0-12.1.4-18.1 1.1 3.8 6.1 9.4 13.3 15.5 20.4v-3.8zm-16.7-30.3c6.5 1 12.7 2.3 18.5 3.9.7-2.8 1.3-5.5 1.7-8.1 3.7-20.2-.7-31.6-5.8-34.2-4.9-2.8-14.3.7-24.6 10 1.3 1.1 2.6 2.3 3.8 3.5.1.1.2.2.3.3 6.3 7.3 6.1 24.6 6.1 24.6zm-33.4 38.8c3.5-4.1 7.1-7.9 10.7-11.5-3.6.2-7.3.3-11 .3-3.7 0-7.4-.1-11-.3 3.7 3.6 7.4 7.4 11.1 11.4l.2.1zm-28.8-38.8c-6.6-.1-12.8-2.5-18.6-3.9-1.5 7.9-1.7 14.9-.4 20.3 1.3 5.3 3.4 8.9 6.1 10.4 5.6 3.2 14.9-1.1 25.5-10.2 1.3-1.1 2.6-2.3 4-3.6-6-7-10.3-13.4-15.7-19.8l-0.9 6.8zm19.4 5.7c3.8 0 7.4 3.5 7.4 7.7s-3.3 7.7-7.4 7.7c-4.1 0-7.4-3.4-7.4-7.7s3.3-7.7 7.4-7.7z"/>
</svg> 